PathFileType        4      (X/Y/Z)      C:\Users\pc\Desktop\IMUTRC\Sujet_05\Sujet_05_velo_100.trc         
DataRate	CameraRate	NumFrames	NumMarkers	Units	OrigDataRate	OrigDataStartFrame	OrigNumFrames
60.0	60.0	4	64	mm	60.0	482	963
Frame#	Time	pHipOrigin			pRightASI			pLeftASI			pRightCSI			pLeftCSI			pRightIschialTub			pLeftIschialTub			pSacrum			pL5SpinalProcess			pL3SpinalProcess			pT12SpinalProcess			pIJ			pT4SpinalProcess			pT8SpinalProcess			pPX			pC7SpinalProcess			pTopOfHead			pRightAuricularis			pLeftAuricularis			pBackOfHead			pRightAcromion			pLeftAcromion			pRightArmLatEpicondyle			pRightArmMedEpicondyle			pLeftArmLatEpicondyle			pLeftArmMedEpicondyle			pRightUlnarStyloid			pRightRadialStyloid			pRightOlecranon			pLeftUlnarStyloid			pLeftRadialStyloid			pLeftOlecranon			pRightTopOfHand			pRightPinky			pRightBallHand			pLeftTopOfHand			pLeftPinky			pLeftBallHand			pRightGreaterTrochanter			pRightKneeLatEpicondyle			pRightKneeMedEpicondyle			pRightPatella			pLeftGreaterTrochanter			pLeftKneeLatEpicondyle			pLeftKneeMedEpicondyle			pLeftPatella			pRightTibialTub			pRightLatMalleolus			pRightMedMalleolus			pLeftTibialTub			pLeftLatMalleolus			pLeftMedMalleolus			pRightHeelFoot			pRightFirstMetatarsal			pRightFifthMetatarsal			pRightPivotFoot			pRightHeelCenter			pRightToe			pLeftHeelFoot			pLeftFirstMetatarsal			pLeftFifthMetatarsal			pLeftPivotFoot			pLeftHeelCenter			pLeftToe			
		X1	Y1	Z1	X2	Y2	Z2	X3	Y3	Z3	X4	Y4	Z4	X5	Y5	Z5	X6	Y6	Z6	X7	Y7	Z7	X8	Y8	Z8	X9	Y9	Z9	X10	Y10	Z10	X11	Y11	Z11	X12	Y12	Z12	X13	Y13	Z13	X14	Y14	Z14	X15	Y15	Z15	X16	Y16	Z16	X17	Y17	Z17	X18	Y18	Z18	X19	Y19	Z19	X20	Y20	Z20	X21	Y21	Z21	X22	Y22	Z22	X23	Y23	Z23	X24	Y24	Z24	X25	Y25	Z25	X26	Y26	Z26	X27	Y27	Z27	X28	Y28	Z28	X29	Y29	Z29	X30	Y30	Z30	X31	Y31	Z31	X32	Y32	Z32	X33	Y33	Z33	X34	Y34	Z34	X35	Y35	Z35	X36	Y36	Z36	X37	Y37	Z37	X38	Y38	Z38	X39	Y39	Z39	X40	Y40	Z40	X41	Y41	Z41	X42	Y42	Z42	X43	Y43	Z43	X44	Y44	Z44	X45	Y45	Z45	X46	Y46	Z46	X47	Y47	Z47	X48	Y48	Z48	X49	Y49	Z49	X50	Y50	Z50	X51	Y51	Z51	X52	Y52	Z52	X53	Y53	Z53	X54	Y54	Z54	X55	Y55	Z55	X56	Y56	Z56	X57	Y57	Z57	X58	Y58	Z58	X59	Y59	Z59	X60	Y60	Z60	X61	Y61	Z61	X62	Y62	Z62	X63	Y63	Z63	X64	Y64	Z64	
482	8.017	0.0	1249.9765	7.653898598672058E-14	71.87025000000001	1340.63489	121.16080000000008	53.53484999999999	1343.80397	-128.06486999999993	29.200830000000007	1403.45062	104.07039000000009	13.921319999999993	1406.11039	-103.27811999999992	-48.3285	1196.55484	55.006210000000074	-55.91166	1197.85642	-48.66804999999993	-62.08005	1270.00963	4.810210000000081	-25.57902	1370.23185	2.6597700000000857	34.06763	1474.81156	-0.6790899999999118	96.43064	1565.6963	-4.4140799999999105	357.87991	1583.29603	-13.525189999999924	249.45203	1694.10072	-12.506559999999913	172.20565	1644.07449	-8.77156999999991	255.28088	1510.57691	-8.375429999999923	300.27052	1725.3954	-13.412009999999913	576.03725	1766.31051	-63.94754999999993	494.94271	1729.30016	29.144240000000075	460.13939	1738.29809	-112.78536999999993	461.15803	1788.4375	-34.35058999999992	295.5169	1660.20286	185.4478900000001	294.83781	1649.73357	-206.16010999999992	369.5376	1407.18561	172.71497000000005	356.35196	1403.62039	117.02967000000005	393.98481	1419.01308	-209.10281999999995	377.12076	1407.35538	-155.51137999999995	471.28777	1189.76395	150.24844000000004	514.24015	1215.00342	152.11594000000005	338.92201	1398.30086	146.11732000000006	501.67701	1207.25049	-232.24843999999993	540.04554	1235.942	-246.33953999999994	363.70876	1404.41266	-176.39336999999995	555.43822	1125.1939	301.06279	515.2022	1123.26981	224.77846000000002	506.43063	1168.76878	168.97998000000007	623.79985	1169.05173	-377.00758	567.1525	1154.50791	-313.56935	541.34712	1191.57485	-256.80883	10.073150000000009	1214.77706	147.8716300000001	296.81849	994.8654	167.62180000000004	320.41683	1010.82399	103.16494000000004	328.73567	1034.47892	147.98481000000004	-12.902690000000009	1222.13385	-150.0220799999999	254.31883	988.64042	-220.98687999999999	286.46238	998.14766	-159.02000999999998	290.87646	1024.68872	-202.76465999999996	356.86127	977.60522	145.89096000000004	302.70393	604.67217	141.70324	317.98343	607.84125	84.09386000000003	287.48101	945.57486	-200.16148999999996	14.430639999999991	691.14284	-147.41890999999998	36.048309999999994	686.44581	-92.01655999999996	257.14837	530.25534	103.10835000000002	420.41269	502.41269	86.69703	409.49067	500.09246	164.33954	436.76741	497.20634	127.38578	295.68667	525.95444	108.42788000000002	515.54174	482.32297	138.08143	-63.268460000000005	669.80813	-96.54381999999995	45.78192	552.15596	-52.063489999999966	30.04968999999999	534.726	-126.93304999999997	51.950309999999995	526.29398	-87.31952999999997	-36.72740000000001	641.00343	-95.41200999999995	102.31608	462.85575	-83.18839999999997	
483	8.033	0.0	1249.9765	7.653898598672058E-14	72.60593000000001	1339.44648	121.61352000000008	51.950309999999995	1345.61487	-127.38577999999991	29.483780000000007	1402.31881	105.65493000000008	12.336779999999994	1407.41197	-101.46721999999991	-47.59282	1195.70597	54.779850000000074	-56.13802	1198.25256	-48.78122999999993	-62.13664	1269.67009	5.659080000000082	-26.08834	1370.06208	4.131120000000085	33.049	1474.92474	0.3961400000000883	94.90269	1566.14903	-4.24430999999991	356.12559	1585.10693	-16.524499999999925	247.07522	1695.28912	-15.336089999999913	170.16839	1644.86676	-10.07314999999991	253.97929	1511.8785	-9.280879999999923	297.61076	1726.86676	-17.20358999999991	572.64181	1769.59278	-70.28570999999991	492.5093	1732.41265	23.54175000000008	456.63077	1740.39195	-118.16148999999993	457.76258	1790.92749	-39.95306999999992	295.5169	1663.54171	182.78813000000008	289.34851	1649.84675	-209.04622999999992	368.3492	1409.56242	171.46997000000005	354.99378	1405.82743	115.78468000000005	390.75913	1419.74876	-209.38577999999995	374.17804	1408.4872	-155.62455999999995	470.15596	1192.19735	150.98412000000005	513.16493	1217.49341	152.79503000000005	337.67701	1400.62108	144.81573000000006	500.77155	1209.23116	-231.45616999999993	538.85713	1238.20563	-245.43408999999994	360.59626	1405.14834	-176.61972999999995	553.28777	1128.75912	302.81711	513.50447	1126.26912	226.24982000000003	505.12904	1171.37195	170.05521000000005	623.4603	1171.25877	-375.70599	566.64319	1156.60177	-312.43754	540.49826	1193.7253	-255.84677999999994	7.696340000000009	1211.55138	146.7398200000001	273.72946	966.51343	160.15182000000001	298.85576	982.24566	96.26087000000004	309.09868	1003.69356	141.75983000000002	-11.60110000000001	1224.85021	-150.7577599999999	271.52242	1012.74808	-227.15526999999997	302.81711	1022.70805	-164.79226999999997	305.42028	1050.72047	-207.74464999999998	335.63974	949.93234	139.21325000000002	289.85783	575.81089	135.93098	305.53346	579.14974	78.49137000000002	302.30779	969.85229	-205.87714999999997	22.86265999999999	723.06002	-150.24843999999993	44.819869999999995	717.91026	-95.01586999999996	243.96273	502.24291	95.69496000000001	407.11386	473.32504	80.1325	395.51276	469.70323	157.60524	423.07245	467.21324	120.87784	282.44444	497.54588	101.24085000000001	501.67701	451.48101	131.96963	-54.77985000000001	703.36644	-99.20358999999996	52.17667	583.95996	-54.553479999999965	35.935129999999994	566.53001	-129.25326999999996	57.77915999999999	557.81503	-89.69633999999998	-28.804690000000008	674.10902	-98.01517999999996	107.01311	493.47135	-85.45202999999997	
484	8.05	0.0	1249.9765	7.653898598672058E-14	73.28502000000002	1338.37126	122.00966000000008	50.64871999999999	1347.14282	-126.70668999999991	29.879920000000006	1401.24358	107.06970000000008	11.035199999999994	1408.54379	-99.82607999999992	-46.97032	1194.97029	54.55348000000007	-56.36439	1198.5921	-48.89440999999993	-62.13664	1269.44372	6.338160000000082	-26.42788	1369.9489	5.489300000000085	32.20014	1475.03792	1.4147700000000885	93.6011	1566.54516	-4.01793999999991	354.59764	1586.69147	-19.184259999999924	244.98136	1696.36435	-17.769499999999912	168.35748	1645.60244	-11.148379999999909	252.90407	1513.01031	-10.073149999999924	295.34713	1728.16835	-20.48584999999991	569.69909	1772.02618	-76.05796999999991	490.47204	1734.95924	18.561770000000077	453.51828	1741.9199	-122.91510999999991	454.93305	1792.90817	-45.04623999999992	295.57349	1666.37125	180.46790000000007	284.31193	1649.95993	-211.5928199999999	367.1042	1411.48651	170.73430000000005	353.86196	1407.58174	115.10559000000006	387.53346	1420.20148	-209.72531999999995	371.4051	1409.44924	-155.73774999999995	469.13732	1194.17802	151.71980000000005	512.0897	1219.47409	153.58730000000006	336.4886	1402.43199	144.08005000000006	499.8661	1210.8157	-230.43753999999996	537.72531	1240.12971	-244.47203999999994	357.71014	1405.65766	-176.95927999999995	551.53346	1131.53206	304.23188	512.0897	1128.64593	227.55141000000003	503.99723	1173.40922	171.07384000000005	623.17735	1172.78672	-374.06486	566.19046	1158.18631	-310.90958	539.70599	1195.47961	-254.65837999999994	5.545890000000009	1209.17457	145.8343600000001	250.69703	943.08486	153.36093000000002	277.06832	958.138	89.75293000000005	288.95237	977.66181	135.70462000000003	-10.299520000000008	1227.39679	-151.3236699999999	286.63215	1036.85574	-231.85230999999996	316.9648	1047.21184	-169.09315999999998	317.87025	1076.46926	-211.30985999999996	314.58798	925.7115	133.49758000000003	272.93719	551.13732	131.00759	289.23533	554.47618	73.73775000000002	316.28571	993.84677	-210.23463999999998	34.633539999999996	749.99722	-153.07797999999994	56.76051999999999	744.67769	-97.90199999999996	225.7971	479.21048	88.56453000000002	388.38232	446.84057	74.24707	375.81918	441.80399	151.49344	403.77501	439.48377	114.99241	264.05244	473.43822	94.44996000000002	481.70047	421.82746	126.53692	-42.55624000000001	729.68114	-101.80675999999995	65.53209	610.72738	-58.57142999999997	48.95099999999999	593.63698	-133.27121999999997	71.13457	584.86541	-93.94064999999996	-16.354730000000007	700.5369	-100.95789999999995	120.70807	521.25741	-90.43201999999998	
485	8.067	0.0	1249.9765	7.653898598672058E-14	73.90752000000002	1337.40921	122.34920000000008	49.573499999999996	1348.44441	-126.14077999999992	30.21946000000001	1400.28154	108.25811000000009	10.016559999999995	1409.50583	-98.41131999999992	-46.46101	1194.3478	54.32712000000007	-56.59075	1198.93165	-49.00758999999993	-62.13664	1269.21736	6.960660000000082	-26.71083	1369.77912	6.621120000000086	31.46446	1475.1511	2.3202200000000883	92.4127	1566.88471	-3.79157999999991	353.18288	1588.3326	-21.391299999999926	242.94409	1697.43957	-19.693579999999912	166.71635	1646.28153	-11.94064999999991	251.99861	1514.19872	-10.808829999999924	293.19668	1729.52653	-23.145619999999912	567.09591	1773.27118	-81.20772999999991	488.60454	1736.82673	14.260870000000077	450.57556	1742.93853	-126.98963999999991	452.61283	1794.43612	-49.460319999999925	295.34713	1668.80465	178.6570000000001	279.55831	1650.52584	-213.6866799999999	365.51966	1412.90128	171.07384000000005	352.56038	1408.88333	115.33195000000006	383.79847	1420.48444	-210.46099999999996	368.63215	1410.41128	-156.07728999999995	467.89233	1195.64938	152.56866000000005	510.78812	1221.00204	154.54934000000006	335.07384	1403.73357	144.24982000000006	498.62111	1212.23047	-229.13594999999995	536.19736	1241.77085	-243.39681999999993	354.54105	1406.11039	-177.35540999999995	550.28846	1133.1166	305.19392	510.84471	1130.17388	228.45686000000003	502.75223	1174.93717	171.97929000000005	622.8378	1173.40922	-371.74464	565.56796	1159.20494	-308.75914	538.51758	1196.95097	-253.01724999999993	3.848170000000009	1207.70321	145.2118700000001	229.30572	924.69287	147.64527000000007	256.3561	938.67078	84.09386000000005	269.88129	956.61005	130.27191000000002	-8.94134000000001	1229.77361	-151.8329799999999	299.87439	1060.28431	-234.68183999999997	329.1884	1071.09314	-171.52656999999996	328.39613	1101.36919	-213.06417999999996	293.87577	906.41406	129.25327000000001	251.77225	531.83988	127.95169000000001	269.2022	534.83919	70.96480000000001	328.96203	1017.78465	-212.66803999999996	49.630089999999996	771.27534	-155.45478999999995	71.81366	766.23877	-100.27880999999995	202.31193	462.40302	82.28295000000001	363.65216	423.35541	70.05935	349.27811	416.6777	146.853	377.85644	414.18771	110.86128	240.17115	454.81986	88.67771000000002	454.48032	392.96617	123.08488	-26.65424000000001	746.432	-103.84402999999996	86.8668	631.21323	-64.62663999999995	70.28570999999998	615.31123	-139.60937999999996	93.20497	606.53967	-100.67494999999995	0.7922699999999937	718.47617	-103.95720999999996	145.43823	545.42166	-99.20358999999999	
